<?xml version="1.0" encoding="utf-8"?>
<!-- Generator: Adobe Illustrator 26.0.3, SVG Export Plug-In . SVG Version: 6.00 Build 0)  -->
<svg version="1.1" id="Layer_1" xmlns="http://www.w3.org/2000/svg" xmlns:xlink="http://www.w3.org/1999/xlink" x="0px" y="0px"
	 viewBox="0 0 432 432" style="enable-background:new 0 0 432 432;" xml:space="preserve">
<style type="text/css">
	.st0{fill:#AB1717;}
	.st1{fill:#EE1A1A;}
	.st2{fill:#B08A8A;}
	.st3{fill:#1B1A1D;}
	.st4{fill:#353441;}
</style>
<path class="st0" d="M286.6,310.1c0,12.3,0.1,24.6,0.1,36.9c0,1.6-0.4,2.1-2.1,2.1c-2.4,0-5.6-1.1-7,0.6c-1.2,1.4-0.4,4.5-0.3,6.8
	c0.1,1.8-0.8,1.9-2.2,2c-2.5,0-5.8-1.1-7.4,0.5c-1.6,1.6-0.5,4.9-0.4,7.4c0,1.9-0.7,2.2-2.4,2.2c-2.6-0.1-5.1,0-7.7,0.1
	c-5.9,0-11.7,0-17.6-0.1c-2.1-0.1-2.7,0.7-2.6,2.7c0.1,2.2,0,4.4,0,6.7c-13.2,0-26.3,0-39.5,0c0-2.2-0.1-4.4,0-6.7
	c0.1-2-0.5-2.8-2.6-2.7c-5.6,0.2-11.3,0.1-16.9,0.1c-2.6,0-5.1-0.2-7.7-0.1c-1.6,0.1-2.4-0.3-2.4-2.2c0.1-2.5,1.1-5.8-0.5-7.4
	c-1.6-1.6-4.9-0.5-7.4-0.5c-1.9,0-2.2-0.7-2.2-2.4c0.1-2.3,0-4.7-0.1-7c0-2.3-0.1-4.6,0.1-7c0.2-2.4-0.5-3.5-3.1-3.2
	c-2.3,0.2-4.6,0-6.9,0c0-16.1,0-32.2,0-48.2c3.3,0,6.6-0.1,9.9-0.1c0,8.6,0.1,17.2,0,25.8c0,2.2,0.6,3.2,3,3.1
	c4.8-0.2,9.6-0.1,14.4,0c1.9,0,2.8-0.5,2.8-2.6c-0.1-11.3-0.1-22.6,0-33.9c0-1.6-0.5-2.4-2.3-2.5c-2.5-0.1-5.8,1.3-7.3-0.7
	c-1.5-2-0.3-5.2-0.5-7.9c0-0.2,0-0.4,0-0.7c6.7,0,13.4,0,20.1,0c0,3.1,0,6.2,0.1,9.3c0,11.5,0,23,0,34.5c0,4.4,0,4.4,4.3,4.4
	c16,0,31.9,0,47.9,0c6.6,0,6.7,0,6.8-6.6c0-1.9,0.4-2.8,2.6-2.9c7-0.3,7.1-0.3,7.5,7c0.1,1.6,0.5,2.5,2.3,2.5c5.2-0.1,10.5,0,15.7,0
	c1.6,0,2.1-0.7,2.2-2.2c0.1-2.3-1.1-5.3,0.7-6.7c1.8-1.4,4.8-0.3,7.2-0.5C285.7,310,286.1,310.1,286.6,310.1z"/>
<path class="st1" d="M286.6,310.1c-0.4,0-0.9,0-1.3,0c-2.4,0.1-5.4-0.9-7.2,0.5c-1.8,1.4-0.6,4.4-0.7,6.7c-0.1,1.5-0.6,2.3-2.2,2.2
	c-5.2,0-10.5-0.1-15.7,0c-1.8,0-2.2-0.9-2.3-2.5c-0.4-7.3-0.4-7.2-7.5-7c-2.2,0.1-2.6,1-2.6,2.9c-0.2,6.6-0.2,6.6-6.8,6.6
	c-16,0-31.9,0-47.9,0c-4.3,0-4.3,0-4.3-4.4c0-11.5,0-23,0-34.5c3.1,0,6.3-0.1,9.4-0.1c16.5,0,33,0,49.6,0.1c4.4,0,8.7,0.1,13.1,0.1
	c7.1,0,7.1,0,7.1-7c0-0.8,0-1.6,0-2.3c3.3,0,6.7-0.1,10-0.1c0,2,0.1,4,0,6c-0.2,2.5,0.5,3.8,3.3,3.5c2-0.2,4,0,6,0
	C286.6,290.4,286.6,300.2,286.6,310.1z"/>
<path class="st0" d="M147.9,154.2c0-16.3,0-32.6,0-48.9c2.4,0,4.9-0.2,7.3,0c2,0.1,2.7-0.5,2.7-2.6c-0.1-8.8-0.1-17.6-0.1-26.3
	c0-2.6,0.1-5.1,0.1-7.7c-0.1-1.6,0.3-2.4,2.2-2.4c25.7,0.1,51.4,0.1,77,0.2c0,1.9,0,3.8,0,5.7c0,4.3,0,4.3,4.4,4.3
	c5.2,0,10.5,0,15.7,0c0,0,0,0,0,0c0,3.1,0,6.3,0,9.4c-25.1,0-50.3,0.1-75.4-0.1c-3.3,0-3.8,1.1-3.8,4c0.1,14,0,28,0.1,42
	c0,2.5-0.7,3.3-3.2,3.2c-4.6-0.2-9.2,0.1-13.7-0.1c-2.8-0.1-3.4,0.9-3.3,3.4c0.1,5.4,0,10.7-0.1,16.1
	C154.5,154.2,151.2,154.2,147.9,154.2z"/>
<path class="st0" d="M286.6,124.7c0,10,0.1,19.9,0.1,29.9c0,29,0.1,57.9,0.1,86.9c0,0-0.3,0.1-0.3,0.1c-3.1,0-6.1,0-9.2-0.1
	c0-5.1-0.2-10.3,0-15.4c0.2-3.1-0.6-4.2-4-4.1c-12.1,0.2-24.3,0-36.4,0c0-3.1,0-6.2,0-9.3c9,0,18.1-0.1,27.1,0.1
	c2.3,0,3.1-0.6,3.1-3c-0.1-17.4-0.1-34.9,0-52.3c0-2.6-0.9-3.3-3.3-3.2c-3,0.2-6,0-9,0c-7.8,0-7.8,0-7.8-7.6c0-0.8,0-1.6,0-2.3
	c5.6,0,11.2-0.2,16.7,0c2.8,0.1,3.5-0.8,3.5-3.6c-0.1-11.8,0-23.7,0-35.5c2.4,0,4.9,0.1,7.3,0c2.1-0.1,2.7,0.8,2.7,2.8
	c-0.1,4.6,0.1,9.1-0.1,13.7c-0.1,2.3,0.6,3.3,3,3.1C282.3,124.6,284.5,124.7,286.6,124.7z"/>
<path class="st1" d="M286.6,124.7c-2.1,0-4.2-0.1-6.3,0c-2.4,0.2-3.1-0.9-3-3.1c0.1-4.6,0-9.1,0.1-13.7c0-2-0.6-2.9-2.7-2.8
	c-2.4,0.1-4.9,0-7.3,0c-0.1-3.1-0.1-6.2-0.2-9.3c0-3.4,0-6.8,0-10.1l0.1-0.1c3.4,0,6.7,0,10.1,0c0,0-0.1,0.1-0.1,0.1
	c0,2.4,0.1,4.9,0,7.3c-0.1,2,0.6,2.9,2.7,2.7c2.2-0.1,4.4,0,6.6,0C286.6,105.4,286.6,115.1,286.6,124.7z"/>
<path class="st2" d="M157.8,290.5c-3.3,0-6.6,0.1-9.9,0.1c-0.1-13-0.1-25.9-0.2-38.9l0.2-0.2c3.3,0.1,6.6,0.1,9.9,0.2
	c0.1,6.5,0.1,12.9,0.2,19.4C157.9,277.6,157.9,284.1,157.8,290.5z"/>
<path class="st2" d="M147.7,232c0.1-13,0.1-25.9,0.2-38.9c3.3,0,6.6,0,9.9,0.1c0,13,0,26,0.1,38.9c-3.3,0-6.6,0.1-9.9,0.1L147.7,232
	z"/>
<path class="st2" d="M157.8,76.3c0,8.8,0,17.6,0.1,26.3c0,2.1-0.7,2.7-2.7,2.6c-2.4-0.1-4.9,0-7.3,0c0-8.8,0-17.5-0.1-26.3
	c0-2,0.7-2.8,2.7-2.7C152.9,76.4,155.3,76.3,157.8,76.3z"/>
<path class="st0" d="M286.6,280.5c-2,0-4-0.2-6,0c-2.8,0.3-3.5-0.9-3.3-3.5c0.2-2,0-4,0-6c0-6.5,0-12.9,0.1-19.4
	c3.1,0,6.1,0,9.2-0.1c0,0,0.3,0.1,0.3,0.1C286.7,261.3,286.6,270.9,286.6,280.5z"/>
<path class="st1" d="M257.2,76.4c-5.2,0-10.5,0-15.7,0c-4.4,0-4.4,0-4.4-4.3c0-1.9,0-3.8,0-5.7c6.7,0,13.4,0,20.1,0
	C257.2,69.7,257.2,73,257.2,76.4z"/>
<path class="st0" d="M157.8,193.2c-3.3,0-6.6,0-9.9-0.1c0-6.5,0-12.9,0-19.4c3.3,0,6.6,0,9.9-0.1
	C157.8,180.2,157.8,186.7,157.8,193.2z"/>
<path class="st2" d="M157.8,173.7c-3.3,0-6.6,0-9.9,0.1c0-6.5,0-13.1,0-19.6c3.3,0,6.6,0,9.9,0.1
	C157.8,160.7,157.8,167.2,157.8,173.7z"/>
<path class="st2" d="M237,377.8c0-2.2,0.1-4.4,0-6.7c-0.1-2,0.5-2.8,2.6-2.7c5.9,0.2,11.7,0.1,17.6,0.1c0,2.2-0.1,4.4,0,6.6
	c0.1,2-0.6,2.7-2.6,2.7C248.7,377.8,242.8,377.8,237,377.8z"/>
<path class="st2" d="M178,368.6c5.6,0,11.3,0,16.9-0.1c2.1-0.1,2.7,0.7,2.6,2.7c-0.1,2.2,0,4.4,0,6.7c-5.6,0-11.3,0-16.9,0.1
	c-2.1,0-2.7-0.7-2.6-2.7C178.1,373,178,370.8,178,368.6z"/>
<path class="st2" d="M147.7,251.8c-2.2,0-4.5-0.2-6.7-0.1c-1.8,0.1-2.7-0.4-2.6-2.4c0.1-4.9,0.1-9.8,0-14.7c0-2,0.9-2.5,2.6-2.4
	c2.2,0.1,4.5-0.1,6.7-0.1c0,0,0.2,0.2,0.2,0.2c0,6.4,0,12.9,0,19.3L147.7,251.8z"/>
<path class="st0" d="M257.2,76.4c0-3.3,0-6.7,0-10c3.4,0,6.7,0,10.1,0c0,3.3,0,6.7,0,10l0,0C263.9,76.3,260.5,76.3,257.2,76.4
	L257.2,76.4z"/>
<path class="st1" d="M267.3,76.4c0-3.3,0-6.7,0-10c10.4-0.6,10.4-0.6,10,9.9C273.9,76.3,270.6,76.4,267.3,76.4z"/>
<path class="st2" d="M286.8,241.5c2.6,0,5.1,0.1,7.7,0.1c1.8-0.1,2.2,0.7,2.3,2.4c0.4,7.7,0.4,7.7-7.3,7.7c-0.9,0-1.8,0-2.7,0.1
	c0,0-0.3-0.1-0.3-0.1c0.3-3.4,0.3-6.7,0-10.1L286.8,241.5z"/>
<path class="st2" d="M147.9,338.9c2.3,0,4.7,0.2,6.9,0c2.6-0.2,3.3,0.8,3.1,3.2c-0.2,2.3-0.1,4.6-0.1,7c-2.3,0-4.6-0.2-6.9,0
	c-2.2,0.1-3.3-0.5-3.1-2.9C148,343.7,147.9,341.3,147.9,338.9z"/>
<path class="st2" d="M267.3,76.4c3.3,0,6.6-0.1,9.9-0.1c0.1,3.1,0.1,6.2,0.2,9.4c-3.4,0-6.7,0-10.1,0
	C267.3,82.6,267.3,79.5,267.3,76.4L267.3,76.4z"/>
<path class="st0" d="M286.6,95.8c-2.2,0-4.4-0.1-6.6,0c-2.1,0.1-2.7-0.8-2.7-2.7c0.1-2.4,0-4.9,0-7.3c3.1,0.2,7.3-1.4,8.9,0.6
	c1.5,1.9,0.4,6,0.5,9.1C286.6,95.6,286.6,95.7,286.6,95.8z"/>
<path class="st3" d="M157.8,173.7c0-6.5,0-13,0-19.5c0-5.4,0.2-10.7,0.1-16.1c-0.1-2.5,0.5-3.6,3.3-3.4c4.6,0.2,9.2-0.1,13.7,0.1
	c2.5,0.1,3.2-0.7,3.2-3.2c-0.1-14,0-28-0.1-42c0-2.9,0.5-4,3.8-4c25.1,0.2,50.3,0.1,75.4,0.1c0,0,0,0,0,0c0,2.5,0.1,5.1,0,7.6
	c-0.1,1.8,0.6,2.6,2.4,2.5c2.5-0.1,5.1,0,7.6,0.1c0.1,3.1,0.1,6.2,0.2,9.3c0,11.8-0.2,23.7,0,35.5c0,2.8-0.7,3.7-3.5,3.6
	c-5.6-0.2-11.1,0-16.7,0c-9.8,0-19.6,0-29.4,0c-15.8,0-31.5,0-47.3-0.1c-2,0-2.4,0.7-2.4,2.6c0,24.3,0,48.6,0,72.8
	c0,1.8,0.5,2.6,2.4,2.6c19.1-0.1,38.2-0.1,57.3-0.1c3.1,0,6.2,0,9.3,0c12.1,0,24.3,0.2,36.4,0c3.3-0.1,4.1,1,4,4.1
	c-0.2,5.1,0,10.2,0,15.4c0,3.4,0,6.8,0,10.2c0,6.5,0,12.9-0.1,19.4c-3.3,0-6.7,0.1-10,0.1c-5.9,0-11.7,0-17.6-0.1
	c-2.1-0.1-2.7,0.8-2.6,2.7c0.1,2.2,0,4.4-0.1,6.7c-16.5,0-33,0-49.6-0.1c0-9.5,0-9.5-9.5-9.2c-6.7,0-13.4,0-20.1,0
	c-3.3,0-6.6-0.1-9.9-0.1c-0.1-6.5-0.1-12.9-0.2-19.4c0-2.1,0.2-4.2,0-6.3c-0.3-3.1,0.9-3.9,3.9-3.9c6.9,0.1,6.1,1.4,6.2-6.4
	c0-2.1-0.6-3.1-2.8-2.9c-2.4,0.1-4.9,0-7.3,0c0-13,0-26-0.1-38.9C157.8,186.7,157.8,180.2,157.8,173.7z"/>
<path class="st1" d="M158,271.1c3.3,0,6.6,0.1,9.9,0.1c0,0.2,0,0.4,0,0.7c0.2,2.7-1,5.9,0.5,7.9c1.5,2,4.8,0.6,7.3,0.7
	c1.8,0.1,2.3,0.9,2.3,2.5c0,11.3-0.1,22.6,0,33.9c0,2.1-0.9,2.7-2.8,2.6c-4.8-0.1-9.6-0.1-14.4,0c-2.4,0.1-3-0.9-3-3.1
	c0.1-8.6,0-17.2,0-25.8C157.9,284.1,157.9,277.6,158,271.1z"/>
<path class="st4" d="M188,271.2c9.4-0.2,9.4-0.2,9.5,9.2c-3.1,0-6.3,0.1-9.4,0.1C188.1,277.4,188,274.3,188,271.2z"/>
<path class="st0" d="M247,280.5c0-2.2,0.2-4.4,0.1-6.7c-0.1-2,0.5-2.8,2.6-2.7c5.9,0.1,11.7,0.1,17.6,0.1c0,0.8,0,1.6,0,2.3
	c0,7,0,7-7.1,7C255.7,280.5,251.4,280.5,247,280.5z"/>
<path class="st1" d="M267.3,76.4c0,3.1,0,6.2,0,9.4c0,0-0.1,0.1-0.1,0.1c-3.4,0-6.7,0-10.1,0c0,0,0,0,0,0c0-3.1,0-6.3,0-9.4
	C260.5,76.3,263.9,76.3,267.3,76.4z"/>
<path class="st1" d="M217.6,144.3c9.8,0,19.6,0,29.4,0c0,0.8,0,1.6,0,2.3c0,7.6,0,7.6,7.8,7.6c3,0,6,0.1,9,0
	c2.4-0.1,3.3,0.6,3.3,3.2c-0.1,17.4-0.1,34.9,0,52.3c0,2.4-0.8,3.1-3.1,3c-9-0.1-18.1,0-27.1-0.1c0,0,0,0,0,0c0-2.2-0.2-4.5,0-6.7
	c0.2-2.6-0.7-3.5-3.4-3.4c-7.7,0.2-15.4,0-23.1,0.1c-1.6,0-3.1,0.1-3.1-2.3c0-2.2,1-5-0.5-6.5c-1.6-1.6-4.5-0.6-6.8-0.6
	c-2,0-2.8-0.6-2.8-2.7c0.1-11.2,0.1-22.4,0-33.5c0-2.3,0.9-2.9,3-2.8c3.2,0.1,6.5,0,9.7,0c7.5,0,7.5,0,7.5-7.3
	C217.6,146.1,217.6,145.2,217.6,144.3z M257.2,178.6c0-4.1-0.1-8.3,0-12.4c0-1.7-0.3-2.6-2.4-2.6c-8.3,0.1-16.5,0.1-24.8,0
	c-1.6,0-2.5,0.3-2.4,2.2c0.1,8.4,0.1,16.8,0,25.1c0,1.8,0.7,2.3,2.4,2.3c8.3-0.1,16.5-0.1,24.8,0c1.9,0,2.5-0.7,2.4-2.5
	C257.1,186.7,257.2,182.7,257.2,178.6z"/>
<path class="st4" d="M277.3,251.7c0-3.4,0-6.8,0-10.2c3.1,0,6.1,0,9.2,0.1c0.3,3.4,0.3,6.7,0,10.1
	C283.5,251.7,280.4,251.7,277.3,251.7z"/>
<path class="st1" d="M237,222c-3.1,0-6.2,0-9.3,0c-0.2-9.3-0.2-9.3,9-9.3c0.1,0,0.2,0,0.3,0c0,0,0,0,0,0
	C237,215.8,237,218.9,237,222z"/>
<path class="st0" d="M257.1,85.8c3.4,0,6.7,0,10.1,0c0,3.4,0,6.8,0,10.1c-2.5,0-5.1-0.2-7.6-0.1c-1.9,0.1-2.5-0.7-2.4-2.5
	C257.2,90.8,257.2,88.3,257.1,85.8z"/>
<path class="st4" d="M157.8,232.1c2.4,0,4.9,0.1,7.3,0c2.2-0.1,2.9,0.8,2.8,2.9c-0.1,7.8,0.7,6.5-6.2,6.4c-3,0-4.3,0.8-3.9,3.9
	c0.2,2.1,0,4.2,0,6.3c-3.3-0.1-6.6-0.1-9.9-0.2c0-6.4,0-12.9,0-19.3C151.2,232.2,154.5,232.2,157.8,232.1z"/>
<path class="st0" d="M237.1,212.7c-0.1,0-0.2,0-0.3,0c-9.2-0.1-9.2-0.1-9,9.3c-19.1,0-38.2,0-57.3,0.1c-2,0-2.5-0.7-2.4-2.6
	c0-24.3,0-48.6,0-72.8c0-1.8,0.5-2.6,2.4-2.6c15.8,0.1,31.5,0.1,47.3,0.1c0,0.9,0,1.8,0,2.7c0,7.3,0,7.3-7.5,7.3
	c-3.2,0-6.5,0.1-9.7,0c-2.1-0.1-3,0.5-3,2.8c0.1,11.2,0.1,22.4,0,33.5c0,2.1,0.8,2.7,2.8,2.7c2.3,0,5.1-1,6.8,0.6
	c1.5,1.5,0.5,4.3,0.5,6.5c0,2.4,1.5,2.3,3.1,2.3c7.7,0,15.4,0.1,23.1-0.1c2.7-0.1,3.6,0.8,3.4,3.4
	C236.9,208.2,237.1,210.5,237.1,212.7z"/>
<path class="st2" d="M257.2,178.6c0,4-0.1,8,0,12.1c0,1.8-0.5,2.6-2.4,2.5c-8.3-0.1-16.5-0.1-24.8,0c-1.7,0-2.4-0.5-2.4-2.3
	c0.1-8.4,0.1-16.8,0-25.1c0-1.9,0.8-2.2,2.4-2.2c8.3,0,16.5,0.1,24.8,0c2,0,2.4,0.9,2.4,2.6C257.1,170.4,257.2,174.5,257.2,178.6z"
	/>
</svg>
