<?xml version="1.0" encoding="utf-8"?>
<!-- Generator: Adobe Illustrator 26.0.3, SVG Export Plug-In . SVG Version: 6.00 Build 0)  -->
<svg version="1.1" id="Layer_1" xmlns="http://www.w3.org/2000/svg" xmlns:xlink="http://www.w3.org/1999/xlink" x="0px" y="0px"
	 viewBox="0 0 432 432" style="enable-background:new 0 0 432 432;" xml:space="preserve">
<style type="text/css">
	.st0{fill:#C09B4D;}
	.st1{fill:#E9DA74;}
	.st2{fill:#B7A9AF;}
	.st3{fill:#896B3E;}
	.st4{fill:#935B28;}
</style>
<path class="st0" d="M248.9,284.7c-0.2,4.8,2,11-0.8,13.9c-3.1,3.2-9.4,0.9-14.3,1c-9.3,0.1-18.6-0.1-27.9-0.1c0-1.8,0.1-3.6,0-5.5
	c-0.3-10.8,2.3-9.1-10-9.4c-3-0.1-4.2,0.8-4.1,3.9c0.2,3.6,0.1,7.3,0.1,10.9c-4.4,0-10.1,1.6-13-0.6c-3.1-2.3-0.7-8.3-1.1-12.7
	c0-0.5,0-1,0-1.5c0-4.7,0-9.4,0-14c6.1,0,12.3,0.1,18.4,0c11.1-0.2,9.3,2.1,9.7-9.7c0.1-3.7-1.5-4.4-4.7-4.3
	c-7.8,0.2-15.6,0.1-23.4,0.1c0-3.6,0-7.3,0-10.9c0-1.6-0.3-2.7-2.3-3.1c-10.5-2-13.4,0.4-12.6,10.6c0,0.2,0,0.3,0,0.5
	c-0.1,2.2,1.1,2.9,3.1,2.8c4-0.1,8,0,11.9,0c0,4.7,0,9.3,0,14c-3.5,0-7,0.2-10.5-0.1c-3.4-0.2-4.9,0.8-4.6,4.4
	c0.3,3.1,0.1,6.3,0.1,9.4c-4.6,0-10.6,2.1-13.2-0.9c-2.3-2.6-0.8-8.4-0.9-12.8c0.5-13.8,0.5-13.8-13.2-14.1c-0.2,0-0.3,0-0.5,0
	c-0.1-4.6-0.2-9.2-0.3-13.8c0-5,0.1-10,0.1-15c2.7,0,5.3-0.3,8,0.1c4.7,0.6,6.3-0.9,6.2-5.9c-0.4-12.2-0.2-24.5-0.1-36.7
	c0.1-4.6-2.1-10.4,1-13.4c2.8-2.8,8.5-0.6,13-0.9c0,3.3,0.1,6.6-0.1,10c-0.2,2.9,0.8,4.2,3.9,4.1c4.6-0.2,9.3-0.1,14-0.1
	c10.8,0,10.9,0,11,10.7c0,3.2,1,4.3,4.3,4.3c9.6,0.1,9.8,0.2,9.7,9.5c0,3.6,1.2,4.6,4.6,4.5c6.8-0.2,13.6,0,20.4-0.1
	c3-0.1,4.1,0.9,4.1,4c-0.2,6.6,0.2,13.3-0.1,19.9c-0.2,4.3,1.4,5.5,5.4,5.2c4.3-0.3,8.6-0.2,13-0.1c11.2,0.3,9.5-2.4,9.7,10.1
	c0.1,2.7-0.8,3.7-3.7,3.9c-10.4,0.4-10.4,0.5-10.4,10.9c0,1,0,2,0,3l0,0c-3.6,0-7.3,0.1-10.9,0c-2,0-2.9,0.6-3.2,2.8
	c-1.3,10.5-0.8,11.2,9.6,11.2C245.9,284.7,247.4,284.7,248.9,284.7L248.9,284.7z M178,220.5c0.1,8-0.9,7.3,6.5,7.3
	c7.5,0,7.5,0,7.5-6.4c0-7.6,0-7.6-6.3-7.6C177.3,214,178.1,212.9,178,220.5z"/>
<path class="st1" d="M248.9,270.7c0-1,0-2,0-3c0-10.4,0-10.5,10.4-10.9c2.9-0.1,3.7-1.1,3.7-3.9c-0.3-12.6,1.5-9.9-9.7-10.1
	c-4.3-0.1-8.7-0.3-13,0.1c-4,0.3-5.6-0.9-5.4-5.2c0.4-6.6,0-13.3,0.1-19.9c0.1-3.1-1.1-4-4.1-4c-6.8,0.2-13.6-0.1-20.4,0.1
	c-3.4,0.1-4.6-0.9-4.6-4.5c0-9.3-0.1-9.4-9.7-9.5c-3.3,0-4.2-1.1-4.3-4.3c-0.1-10.7-0.2-10.7-11-10.7c-4.7,0-9.3-0.2-14,0.1
	c-3.1,0.1-4.1-1.1-3.9-4.1c0.2-3.3,0.1-6.6,0.1-10l0,0c3.6,0,7.3-0.2,10.9,0c3.3,0.2,4.3-1,4.2-4.2c-0.3-11.9,1.5-9.5-9.5-9.8
	c-1.8,0-3.6,0.1-5.4,0.1l-0.3-0.3c0-3.3,0.3-6.6,0.1-9.9c-0.2-3.1,1-4,4-4c8.3,0.1,16.6,0,24.9-0.1l0.3,0.3c0,8.1,0,16.2-0.2,24.3
	c0,2.5,0.8,3.4,3.4,3.5c10.3,0.6,10.3,0.7,10.6-9.8c0-0.2,0-0.3,0-0.5c-0.3-2.7,0.8-3.9,3.6-3.8c4,0.2,7.9,0,11.9,0
	c13.9,0,13.9,0,13.3-13.8l0.3-0.3c8.1,0,16.1,0.2,24.2,0.1c2.8,0,3.8,0.8,3.7,3.7c-0.2,3.4,0,6.9,0,10.3c-3.5,0-7,0-10.4,0
	c-1.2,0-3.2-0.4-3.3,1.3c-0.3,3.8-0.9,7.8,0.2,11.3c0.9,2.7,4.7,1.2,7.2,1.2c6.3,0.2,6.3,0.1,6.3-6.5c0-2.5,0-5,0-7.4
	c3.8,0,7.7,0.1,11.5,0c2.5-0.1,3.5,0.7,3.6,3.4c0,3.4-1.6,7.7,0.9,10c2.2,2,6.4,0.6,9.7,0.6c2.7,0,3.4,1.1,3.4,3.6
	c-0.1,26.2-0.1,52.5,0,78.7c0,3-1.2,3.5-3.8,3.6c-9.8,0.2-10,0.3-10.1,10c0,3.1-1.1,4.1-4,3.9c-3.6-0.2-7.3,0-11,0
	C258.2,270.8,253.6,270.8,248.9,270.7z M234.9,192.7c0-7.6,0-7.7-6.2-7.6c-8.5,0.1-7.8-1-7.8,6.5c0,9.3-1.2,8.4,6.9,8.4
	C235.9,200,234.8,200.8,234.9,192.7z"/>
<path class="st1" d="M163,171c-4.4,0.3-10.2-1.9-13,0.9c-3,3-0.9,8.8-1,13.4c-0.2,12.2-0.3,24.5,0.1,36.7c0.1,4.9-1.5,6.5-6.2,5.9
	c-2.6-0.3-5.3-0.1-8-0.1l0,0c0-3.3-0.2-6.6,0-10c0.2-2.9-0.7-4.3-3.9-4.1c-3.3,0.2-6.6,0.1-10,0.1c0-0.7-0.1-1.3-0.1-2
	c0.1-3.6-1.1-8,0.5-10.7c1.9-3.2,6.7-1.1,10.2-1.2c3.3-0.1,3.3-1.9,3.2-4.2c0-11.5,0.1-22.9-0.1-34.4c-0.1-3.5,1-4.6,4.5-4.5
	c7.8,0.2,15.6,0,23.4,0c0,0,0.3,0.3,0.3,0.3C163.1,161.9,163,166.5,163,171L163,171z"/>
<path class="st1" d="M191.9,143c0-3.8,0.2-7.6,0.1-11.4c-0.1-2.5,0.8-3.5,3.4-3.5c12.1,0.1,24.2,0.1,36.2,0c2.6,0,3.5,1,3.4,3.5
	c-0.1,3.8,0,7.6,0.1,11.4c0,0-0.3,0.3-0.3,0.3c-14.2,0-28.4,0-42.7,0L191.9,143z"/>
<path class="st2" d="M135,227.9c0,5-0.1,10-0.1,15c-4.4-0.4-10.3,1.8-12.8-0.9c-3-3.4-0.9-9.3-0.9-14.2
	C125.8,227.8,130.4,227.9,135,227.9L135,227.9z"/>
<path class="st3" d="M178,270.7c0,4.7,0,9.4,0,14c-5-0.1-9.9-0.1-14.9-0.2c0-3.1,0.2-6.3-0.1-9.4c-0.3-3.6,1.2-4.6,4.6-4.4
	C171,270.9,174.5,270.7,178,270.7L178,270.7z"/>
<path class="st3" d="M192,299.5c0-3.6,0.1-7.3-0.1-10.9c-0.2-3.1,1.1-4,4.1-3.9c12.2,0.3,9.7-1.4,10,9.4c0,1.8,0,3.6,0,5.5
	C201.3,299.5,196.7,299.5,192,299.5z"/>
<path class="st0" d="M135.1,227.9c-4.6,0-9.2-0.1-13.9-0.1c0-4.6,0-9.2,0-13.8c3.3,0,6.7,0.1,10-0.1c3.2-0.2,4.1,1.2,3.9,4.1
	C134.9,221.3,135.1,224.6,135.1,227.9z"/>
<path class="st2" d="M135.2,256.7c0.2,0,0.3,0,0.5,0c13.8,0.2,13.8,0.2,13.2,14.1c-0.3,0-0.7-0.1-1-0.1
	C134.6,270.5,134.6,270.5,135.2,256.7z"/>
<path class="st0" d="M248.9,270.7c4.7,0,9.4,0,14,0c-0.1,4.4,1.4,10.2-0.8,12.9c-2.6,3.1-8.7,0.6-13.2,1c0,0,0,0,0,0
	C248.9,280,248.9,275.4,248.9,270.7L248.9,270.7z"/>
<path class="st3" d="M178,270.8c0-4.7,0-9.3,0-14l0,0c7.8,0,15.6,0.1,23.4-0.1c3.2-0.1,4.8,0.6,4.7,4.3c-0.4,11.8,1.4,9.5-9.7,9.7
	C190.2,270.8,184.1,270.7,178,270.8C178,270.7,178,270.8,178,270.8z"/>
<path class="st3" d="M178,256.7c-4,0-8,0-11.9,0c-2,0-3.2-0.6-3.1-2.8c0-0.2,0-0.3,0-0.5c-0.8-10.2,2.2-12.7,12.6-10.6
	c2,0.4,2.3,1.5,2.3,3.1C178,249.5,178,253.2,178,256.7C178,256.8,178,256.7,178,256.7z"/>
<path class="st4" d="M178,220.5c0.1-7.6-0.7-6.5,7.7-6.6c6.3,0,6.3,0,6.3,7.6c0,6.4,0,6.4-7.5,6.4
	C177.1,227.8,178.1,228.5,178,220.5z"/>
<path class="st1" d="M248.9,270.7c0,4.7,0,9.3,0,14c-1.5,0-3,0-4.5,0c-10.4,0-10.9-0.7-9.6-11.2c0.3-2.2,1.2-2.8,3.2-2.8
	C241.7,270.8,245.3,270.7,248.9,270.7z"/>
<path class="st0" d="M192.1,143.3c14.2,0,28.4,0,42.7,0c0.6,13.8,0.6,13.8-13.3,13.8c-4,0-8,0.1-11.9,0c-2.9-0.1-3.9,1.1-3.6,3.8
	c0,0.2,0,0.3,0,0.5c-0.3,10.4-0.3,10.3-10.6,9.8c-2.6-0.1-3.5-1-3.4-3.5C192.1,159.5,192.1,151.4,192.1,143.3z"/>
<path class="st0" d="M163,171.1c0.1-4.6,0.1-9.2,0.2-13.8c1.8,0,3.6-0.2,5.4-0.1c10.9,0.3,9.1-2.1,9.5,9.8c0.1,3.2-0.9,4.4-4.2,4.2
	C170.2,170.9,166.6,171.1,163,171.1z"/>
<path class="st0" d="M234.9,192.7c-0.1,8.1,0.9,7.3-7,7.3c-8.1,0-6.9,1-6.9-8.4c0-7.6-0.7-6.5,7.8-6.5
	C234.9,185,234.9,185,234.9,192.7z"/>
<path class="st0" d="M262.9,157.1c0,2.5,0,5,0,7.4c0,6.5,0,6.7-6.3,6.5c-2.5-0.1-6.3,1.5-7.2-1.2c-1.1-3.5-0.5-7.5-0.2-11.3
	c0.1-1.7,2-1.3,3.3-1.3C256,157.1,259.4,157.1,262.9,157.1C262.9,157.1,262.9,157.1,262.9,157.1z"/>
</svg>
