<svg id="Layer_1" data-name="Layer 1" xmlns="http://www.w3.org/2000/svg" viewBox="0 0 111.48 70.32"><defs><style>.cls-1{fill:#e9e9e9;}.cls-2{fill:#020201;}.cls-3{fill:#d78427;}</style></defs><path class="cls-1" d="M287.74,431.31H232.55c-.45,0-.55-.1-.55-.55q0-34.61,0-69.22c0-.45.1-.55.55-.55H342.93c.45,0,.55.1.55.55q0,34.6,0,69.22c0,.45-.1.55-.55.55Zm55-34.63V374.53c0-2.88,0-5.75,0-8.62a4,4,0,0,0-4.35-4.3c-2.61,0-5.23,0-7.85.07-3.61.14-7.22-.18-10.83.05-3.21.19-6.43-.15-9.64-.09-2.38.05-4.76.21-7.13.11-5.21-.22-10.42-.19-15.62,0-4.4.14-8.78-.18-13.17,0-2.14.07-4.28,0-6.41,0-3.73,0-7.46.09-11.19.05-3.54,0-7.07,0-10.6,0-2.9,0-5.79.14-8.69.05a5.73,5.73,0,0,0-1.37.07,3.89,3.89,0,0,0-3.21,4.1c0,5.17,0,10.34,0,15.51q0,13.65-.08,27.29c0,5.87,0,11.74,0,17.6a4.07,4.07,0,0,0,4.34,4.42c1.6,0,3.2,0,4.79,0l39.54,0c6.23,0,12.46.05,18.69,0,7.48-.09,15-.17,22.45-.15,3.82,0,7.63.12,11.44.15,1.43,0,2.87-.14,4.31-.15a4.27,4.27,0,0,0,4.53-4.46C342.57,416.09,342.62,406.11,342.73,396.68Z" transform="translate(-232 -361)"/><path class="cls-2" d="M342.73,396.68c-.11,9.43-.16,19.41-.08,29.38a4.27,4.27,0,0,1-4.53,4.46c-1.44,0-2.88.16-4.31.15-3.81,0-7.62-.14-11.44-.15-7.48,0-15,.06-22.45.15-6.23.07-12.46,0-18.69,0l-39.54,0c-1.59,0-3.19,0-4.79,0a4.07,4.07,0,0,1-4.34-4.42c0-5.86,0-11.73,0-17.6q0-13.65.08-27.29c0-5.17,0-10.34,0-15.51a3.89,3.89,0,0,1,3.21-4.1,5.73,5.73,0,0,1,1.37-.07c2.9.09,5.79-.05,8.69-.05,3.53,0,7.06,0,10.6,0,3.73,0,7.46,0,11.19-.05,2.13,0,4.27.09,6.41,0,4.39-.14,8.77.18,13.17,0,5.2-.15,10.41-.18,15.62,0,2.37.1,4.75-.06,7.13-.11,3.21-.06,6.43.28,9.64.09,3.61-.23,7.22.09,10.83-.05,2.62-.1,5.24,0,7.85-.07a4,4,0,0,1,4.35,4.3c0,2.87,0,5.74,0,8.62Zm-55.19,29.57a54.25,54.25,0,0,0,15.68-2.11,47.75,47.75,0,0,0,13.72-6,10,10,0,0,0,2.19-1.63,1.06,1.06,0,0,0-.58-1.8,1.49,1.49,0,0,0-1,.13,66.86,66.86,0,0,1-13.59,4.22,64.32,64.32,0,0,1-17.6,1.69c-2.65-.15-5.3-.22-7.94-.57a82.35,82.35,0,0,1-16.09-3.93,61.8,61.8,0,0,1-7.18-3c-1.59-.79-3.13-1.67-4.7-2.51-.35-.19-.75-.3-1,.09s0,.73.27,1c1.35,1.15,2.66,2.36,4.08,3.42a48.7,48.7,0,0,0,7.46,4.65A56.67,56.67,0,0,0,287.54,426.25Zm-33.82-49.54h0c0,1.52,0,3,0,4.55,0,.57.24.8.79.79h.84c1.12,0,1.16,0,1.17-1.19v-5.2a3.18,3.18,0,0,1,.26-1.4,1.09,1.09,0,0,1,1.13-.62,1,1,0,0,1,1,.76,3.51,3.51,0,0,1,.13,1.12c0,1.9.07,3.79.08,5.69,0,.53.18.77.73.73s.8,0,1.2,0,.57-.11.58-.51c0-.85.16-1.69.14-2.55,0-1.13,0-2.27.05-3.41a2.45,2.45,0,0,1,.39-1.36,1.08,1.08,0,0,1,1.2-.45,1,1,0,0,1,.8.93,5.9,5.9,0,0,1,0,.84c0,1.93,0,3.87,0,5.8,0,.56.2.82.78.79s.87,0,1.31,0,.64-.19.65-.61c.05-2.61.12-5.22,0-7.83a2.55,2.55,0,0,0-2.46-2.49,2.67,2.67,0,0,0-2.59,1.16c-.19.29-.34.44-.65.05a2.81,2.81,0,0,0-4.33-.29c-.24.21-.44.28-.49-.1-.07-.55-.42-.61-.86-.58h-.71c-1,0-1,0-1,1C253.7,373.8,253.72,375.26,253.72,376.71Zm23.45-.4h0c0-.78,0-1.56,0-2.33a2.77,2.77,0,0,0-2.17-2.75,6.4,6.4,0,0,0-4.49.44,2.86,2.86,0,0,0-1.56,1.94c-.16.58,0,.77.56.85.42.05.84.07,1.25.13a.64.64,0,0,0,.77-.49,1.49,1.49,0,0,1,1.76-1c.72.13,1,.61,1.06,1.51,0,.44-.16.59-.58.63a15.16,15.16,0,0,0-2.43.37,3.49,3.49,0,0,0-2.59,2.26,3.12,3.12,0,0,0,1.62,4.06,3.81,3.81,0,0,0,3.49-.43c.31-.21.6-.6.91-.62s.53.48.8.73a.7.7,0,0,0,1.09,0,6.61,6.61,0,0,1,1-.71c.59-.35.7-.58.22-1a2.38,2.38,0,0,1-.67-1.95C277.19,377.43,277.17,376.87,277.17,376.31Zm-25.71-.06h0c0-.78,0-1.56,0-2.33a2.75,2.75,0,0,0-2.1-2.68,6,6,0,0,0-4.21.22,3.11,3.11,0,0,0-1.84,2.08c-.19.65-.07.84.59.92.35.05.71.07,1.07.12a.73.73,0,0,0,.92-.52,1.54,1.54,0,0,1,2.14-.79,1.49,1.49,0,0,1,.65,1.55c-.07.59-.55.42-.88.47a9.22,9.22,0,0,0-3.18.78,3.36,3.36,0,0,0-1.57,3.8,2.74,2.74,0,0,0,2.64,2.28,3.76,3.76,0,0,0,2.65-.71c.72-.54.73-.52,1.37.09s.74.59,1.4.05a9.62,9.62,0,0,1,.8-.63.6.6,0,0,0,.16-1,2.8,2.8,0,0,1-.56-2C251.48,377.41,251.46,376.83,251.46,376.25Zm46.79.33h.09c0,1.55,0,3.11,0,4.66,0,.52.19.74.71.7.33,0,.67,0,1,0,.9,0,.94,0,.95-.94,0-1.64,0-3.27.05-4.91a3.51,3.51,0,0,1,.47-1.95,1.1,1.1,0,0,1,1.13-.52,1,1,0,0,1,.86.81,3.94,3.94,0,0,1,.15,1.18c0,1.88,0,3.75,0,5.63,0,.68.1.78.8.8.42,0,.84,0,1.26,0s.75-.21.74-.75c0-2.29,0-4.58-.05-6.88a5.77,5.77,0,0,0-.18-1.36,2.31,2.31,0,0,0-1.87-1.81,2.65,2.65,0,0,0-3,.88c-.17.24-.44.26-.43-.09,0-.74-.4-.8-1-.77a7.69,7.69,0,0,1-1,0c-.57,0-.78.2-.77.77C298.26,373.55,298.25,375.06,298.25,376.58Zm19.35,35.48c1,0,1.92-.07,2.87,0,2,.18,2.42.77,2.12,2.74a28.86,28.86,0,0,1-1.6,5.45c-.25.69-.53,1.37-.8,2.06-.08.23-.14.48.07.67s.5.1.72-.05a5.47,5.47,0,0,0,.88-.71,16.5,16.5,0,0,0,4.38-10.86c.06-1.24-.23-1.51-1.41-1.88a13.88,13.88,0,0,0-3.13-.49,15.2,15.2,0,0,0-9.21,2.22c-.32.19-.73.42-.56.88s.62.29.95.25A39.22,39.22,0,0,1,317.6,412.06Zm-29.54-35.34a6.47,6.47,0,0,0,.49,2.86,4,4,0,0,0,3.51,2.61,4,4,0,0,0,4.05-2.22,6.94,6.94,0,0,0-.12-6.82,4.08,4.08,0,0,0-6.95-.25A6.61,6.61,0,0,0,288.06,376.72ZM269.3,390.05a26.07,26.07,0,0,0,9.45-2.14,18.18,18.18,0,0,0,3.5-2,.55.55,0,0,0,.31-.59.4.4,0,0,0-.32-.33.93.93,0,0,0-.63.11,31,31,0,0,1-4.63,1.44,33,33,0,0,1-21.94-2c-.87-.39-1.71-.86-2.56-1.3-.16-.08-.35-.2-.49,0s0,.37.15.51.43.42.66.6A25.22,25.22,0,0,0,269.3,390.05Zm13.95-18.79v.09H281.1c-1.59,0-1.37-.24-1.4,1.46,0,.42.19.57.57.58.76,0,1.52,0,2.28.07.18,0,.43-.07.52.16s-.08.34-.18.48c-.88,1.26-1.73,2.54-2.66,3.76a4.24,4.24,0,0,0-1,3.09c.08.8.21.93.94.62a7.68,7.68,0,0,1,5.95-.09c.8.31,1,.2,1-.68,0-.16,0-.32,0-.48a1.13,1.13,0,0,0-.89-1.29,9.39,9.39,0,0,0-2.39-.53c-.61,0-.65-.12-.3-.61.93-1.34,1.85-2.7,2.82-4a2.83,2.83,0,0,0,.54-1.9c0-.5-.21-.72-.72-.71C285.21,371.28,284.23,371.26,283.25,371.26Zm49.16,5.94a8.19,8.19,0,0,0-1.28-4.84,2.86,2.86,0,0,0-5.06.44,9.71,9.71,0,0,0,0,8.77,3.11,3.11,0,0,0,1.23,1.36,2.85,2.85,0,0,0,4-1.19A8.39,8.39,0,0,0,332.41,377.2Zm-12.73-5.89c-.68,0-1.36,0-2,0-.44,0-.63.11-.69.58-.22,1.64-.47,3.27-.71,4.91-.05.31-.08.62.25.79s.56-.07.76-.31a2.59,2.59,0,0,1,1.46-1c2-.47,3.7,1.18,3.43,3.42a3,3,0,0,1-2.12,2.62,2.66,2.66,0,0,1-3.16-1.37c-.23-.37-.58-.27-.86-.2s-.16.4-.1.61a2.2,2.2,0,0,0,.78,1.11A4.27,4.27,0,0,0,321,383a3.42,3.42,0,0,0,2.15-3.07,6,6,0,0,0,0-.95,3.58,3.58,0,0,0-5.35-3.22c-.39.19-.47.06-.41-.29.13-.93.28-1.86.41-2.79.05-.37.25-.48.61-.47h3.41c.33,0,.47-.12.47-.46s-.15-.46-.48-.45Zm-6.39,5.2c0,.2,0,.4,0,.6s0,.38-.19.47a.53.53,0,0,1-.5-.15,1.3,1.3,0,0,1-.47-.74c-.1-.32-.35-.32-.58-.25s-.16.32-.11.5a1.85,1.85,0,0,0,1.24,1.28c.3.11.61.2.64.6a.22.22,0,0,0,.21.19.2.2,0,0,0,.2-.18c0-.41.34-.47.66-.58a1.66,1.66,0,0,0,1.18-1.9,1.64,1.64,0,0,0-1.26-1.29c-.25-.09-.53-.13-.54-.47s0-.88,0-1.32.22-.38.48-.21a1.34,1.34,0,0,1,.4.51.38.38,0,0,0,.47.16c.26-.1.13-.3.08-.46a1.63,1.63,0,0,0-.89-1c-.25-.12-.49-.2-.57-.54s-.39-.29-.44-.09c-.13.49-.53.48-.85.64a1.66,1.66,0,0,0-1,1.58,1.23,1.23,0,0,0,.94,1.36A1,1,0,0,1,313.29,376.51Zm-30,6a6.83,6.83,0,0,0-3.56.89c-.16.1-.39.21-.31.45s.31.14.49.12c.77-.05,1.55-.13,2.32-.16.31,0,.31-.13.25-.37a.62.62,0,0,1,.37-.73.57.57,0,0,1,.67.1.66.66,0,0,1,.17.77c0,.12-.24.26,0,.4.49.3.42.77.34,1.23a14.92,14.92,0,0,1-.91,2.84c-.06.17-.17.37,0,.5s.37,0,.51-.16a7.16,7.16,0,0,0,2-4.85.77.77,0,0,0-.63-.83A6.27,6.27,0,0,0,283.25,382.49Z" transform="translate(-232 -361)"/><path class="cls-3" d="M287.54,426.25a56.67,56.67,0,0,1-26.34-6.36,48.7,48.7,0,0,1-7.46-4.65c-1.42-1.06-2.73-2.27-4.08-3.42-.31-.27-.53-.61-.27-1s.67-.28,1-.09c1.57.84,3.11,1.72,4.7,2.51a61.8,61.8,0,0,0,7.18,3,82.35,82.35,0,0,0,16.09,3.93c2.64.35,5.29.42,7.94.57a64.32,64.32,0,0,0,17.6-1.69,66.86,66.86,0,0,0,13.59-4.22,1.49,1.49,0,0,1,1-.13,1.06,1.06,0,0,1,.58,1.8,10,10,0,0,1-2.19,1.63,47.75,47.75,0,0,1-13.72,6A54.25,54.25,0,0,1,287.54,426.25Z" transform="translate(-232 -361)"/><path class="cls-1" d="M253.72,376.71c0-1.45,0-2.91,0-4.37,0-1,0-1,1-1h.71c.44,0,.79,0,.86.58.05.38.25.31.49.1a2.81,2.81,0,0,1,4.33.29c.31.39.46.24.65-.05a2.67,2.67,0,0,1,2.59-1.16,2.55,2.55,0,0,1,2.46,2.49c.14,2.61.07,5.22,0,7.83,0,.42-.23.61-.65.61s-.88,0-1.31,0-.78-.23-.78-.79c0-1.93,0-3.87,0-5.8a5.9,5.9,0,0,0,0-.84,1,1,0,0,0-.8-.93,1.08,1.08,0,0,0-1.2.45,2.45,2.45,0,0,0-.39,1.36c0,1.14-.07,2.28-.05,3.41,0,.86-.13,1.7-.14,2.55,0,.4-.22.52-.58.51s-.8,0-1.2,0-.73-.2-.73-.73c0-1.9,0-3.79-.08-5.69a3.51,3.51,0,0,0-.13-1.12,1,1,0,0,0-1-.76,1.09,1.09,0,0,0-1.13.62,3.18,3.18,0,0,0-.26,1.4v5.2c0,1.15-.05,1.19-1.17,1.19h-.84c-.55,0-.8-.22-.79-.79,0-1.52,0-3,0-4.55Z" transform="translate(-232 -361)"/><path class="cls-1" d="M277.17,376.31c0,.56,0,1.12,0,1.67a2.38,2.38,0,0,0,.67,1.95c.48.46.37.69-.22,1a6.61,6.61,0,0,0-1,.71.7.7,0,0,1-1.09,0c-.27-.25-.45-.76-.8-.73s-.6.41-.91.62a3.81,3.81,0,0,1-3.49.43,3.12,3.12,0,0,1-1.62-4.06,3.49,3.49,0,0,1,2.59-2.26,15.16,15.16,0,0,1,2.43-.37c.42,0,.59-.19.58-.63,0-.9-.34-1.38-1.06-1.51a1.49,1.49,0,0,0-1.76,1,.64.64,0,0,1-.77.49c-.41-.06-.83-.08-1.25-.13-.59-.08-.72-.27-.56-.85a2.86,2.86,0,0,1,1.56-1.94,6.4,6.4,0,0,1,4.49-.44,2.77,2.77,0,0,1,2.17,2.75c0,.77,0,1.55,0,2.33Zm-2.77,1.27c-.13-.19.2-.61-.23-.76a2.63,2.63,0,0,0-2.56,1.16,1.64,1.64,0,0,0,.55,2.1,1.5,1.5,0,0,0,1.91-.87A3.89,3.89,0,0,0,274.4,377.58Z" transform="translate(-232 -361)"/><path class="cls-1" d="M251.46,376.25c0,.58,0,1.16,0,1.74a2.8,2.8,0,0,0,.56,2,.6.6,0,0,1-.16,1,9.62,9.62,0,0,0-.8.63c-.66.54-.78.54-1.4-.05s-.65-.63-1.37-.09a3.76,3.76,0,0,1-2.65.71,2.74,2.74,0,0,1-2.64-2.28,3.36,3.36,0,0,1,1.57-3.8,9.22,9.22,0,0,1,3.18-.78c.33-.05.81.12.88-.47a1.49,1.49,0,0,0-.65-1.55,1.54,1.54,0,0,0-2.14.79.73.73,0,0,1-.92.52c-.36-.05-.72-.07-1.07-.12-.66-.08-.78-.27-.59-.92a3.11,3.11,0,0,1,1.84-2.08,6,6,0,0,1,4.21-.22,2.75,2.75,0,0,1,2.1,2.68c.05.77,0,1.55,0,2.33Zm-2.84,1.3c-.12-.17.17-.53-.23-.66a2.42,2.42,0,0,0-2.49,1.24,1.54,1.54,0,0,0,.61,1.92,1.46,1.46,0,0,0,1.8-.88A4.07,4.07,0,0,0,248.62,377.55Z" transform="translate(-232 -361)"/><path class="cls-1" d="M298.25,376.58c0-1.52,0-3,0-4.55,0-.57.2-.81.77-.77a7.69,7.69,0,0,0,1,0c.56,0,1,0,1,.77,0,.35.26.33.43.09a2.65,2.65,0,0,1,3-.88,2.31,2.31,0,0,1,1.87,1.81,5.77,5.77,0,0,1,.18,1.36c0,2.3,0,4.59.05,6.88,0,.54-.2.78-.74.75s-.84,0-1.26,0c-.7,0-.8-.12-.8-.8,0-1.88,0-3.75,0-5.63a3.94,3.94,0,0,0-.15-1.18,1,1,0,0,0-.86-.81,1.1,1.1,0,0,0-1.13.52,3.51,3.51,0,0,0-.47,1.95c0,1.64,0,3.27-.05,4.91,0,.91-.05.94-.95.94-.34,0-.68,0-1,0-.52,0-.72-.18-.71-.7,0-1.55,0-3.11,0-4.66Z" transform="translate(-232 -361)"/><path class="cls-3" d="M317.6,412.06a39.22,39.22,0,0,0-4.72.29c-.33,0-.79.18-.95-.25s.24-.69.56-.88A15.2,15.2,0,0,1,321.7,409a13.88,13.88,0,0,1,3.13.49c1.18.37,1.47.64,1.41,1.88a16.5,16.5,0,0,1-4.38,10.86,5.47,5.47,0,0,1-.88.71c-.22.15-.47.27-.72.05s-.15-.44-.07-.67c.27-.69.55-1.37.8-2.06a28.86,28.86,0,0,0,1.6-5.45c.3-2-.13-2.56-2.12-2.74C319.52,412,318.56,412.06,317.6,412.06Z" transform="translate(-232 -361)"/><path class="cls-1" d="M288.06,376.72a6.61,6.61,0,0,1,1-3.82,4.08,4.08,0,0,1,6.95.25,6.94,6.94,0,0,1,.12,6.82,4,4,0,0,1-4.05,2.22,4,4,0,0,1-3.51-2.61A6.47,6.47,0,0,1,288.06,376.72Zm5.88-.16a10.65,10.65,0,0,0-.29-2.4,1.28,1.28,0,0,0-1.16-1,1.18,1.18,0,0,0-1.34.88,9.37,9.37,0,0,0,.09,5.35,1.06,1.06,0,0,0,.11.21,1.2,1.2,0,0,0,2,.13,2.08,2.08,0,0,0,.4-.85A9.4,9.4,0,0,0,293.94,376.56Z" transform="translate(-232 -361)"/><path class="cls-3" d="M269.3,390.05a25.22,25.22,0,0,1-16.5-5.64c-.23-.18-.44-.39-.66-.6s-.32-.3-.15-.51.33-.06.49,0c.85.44,1.69.91,2.56,1.3a33,33,0,0,0,21.94,2,31,31,0,0,0,4.63-1.44.93.93,0,0,1,.63-.11.4.4,0,0,1,.32.33.55.55,0,0,1-.31.59,18.18,18.18,0,0,1-3.5,2A26.07,26.07,0,0,1,269.3,390.05Z" transform="translate(-232 -361)"/><path class="cls-1" d="M283.25,371.26c1,0,2,0,2.94,0,.51,0,.7.21.72.71a2.83,2.83,0,0,1-.54,1.9c-1,1.32-1.89,2.68-2.82,4-.35.49-.31.57.3.61a9.39,9.39,0,0,1,2.39.53,1.13,1.13,0,0,1,.89,1.29c0,.16,0,.32,0,.48,0,.88-.19,1-1,.68a7.68,7.68,0,0,0-5.95.09c-.73.31-.86.18-.94-.62a4.24,4.24,0,0,1,1-3.09c.93-1.22,1.78-2.5,2.66-3.76.1-.14.26-.29.18-.48s-.34-.16-.52-.16c-.76,0-1.52-.06-2.28-.07-.38,0-.58-.16-.57-.58,0-1.7-.19-1.45,1.4-1.46h2.15Z" transform="translate(-232 -361)"/><path class="cls-3" d="M332.41,377.2a8.39,8.39,0,0,1-1.11,4.54,2.85,2.85,0,0,1-4,1.19,3.11,3.11,0,0,1-1.23-1.36,9.71,9.71,0,0,1,0-8.77,2.86,2.86,0,0,1,5.06-.44A8.19,8.19,0,0,1,332.41,377.2Zm-1-.05a7.38,7.38,0,0,0-1.11-4.34,1.83,1.83,0,0,0-3.08,0,2.92,2.92,0,0,0-.37.61,9.7,9.7,0,0,0,0,7.62,2,2,0,0,0,1.84,1.4,2,2,0,0,0,1.89-1.32A8.36,8.36,0,0,0,331.39,377.15Z" transform="translate(-232 -361)"/><path class="cls-3" d="M319.68,371.31h2.15c.33,0,.48.11.48.45s-.14.46-.47.46h-3.41c-.36,0-.56.1-.61.47-.13.93-.28,1.86-.41,2.79-.06.35,0,.48.41.29a3.58,3.58,0,0,1,5.35,3.22,6,6,0,0,1,0,.95A3.42,3.42,0,0,1,321,383a4.27,4.27,0,0,1-4.32-.51,2.2,2.2,0,0,1-.78-1.11c-.06-.21-.24-.51.1-.61s.63-.17.86.2a2.66,2.66,0,0,0,3.16,1.37,3,3,0,0,0,2.12-2.62c.27-2.24-1.39-3.89-3.43-3.42a2.59,2.59,0,0,0-1.46,1c-.2.24-.41.48-.76.31s-.3-.48-.25-.79c.24-1.64.49-3.27.71-4.91.06-.47.25-.61.69-.58C318.32,371.34,319,371.31,319.68,371.31Z" transform="translate(-232 -361)"/><path class="cls-3" d="M313.29,376.51a1,1,0,0,0-.87-1.29,1.23,1.23,0,0,1-.94-1.36,1.66,1.66,0,0,1,1-1.58c.32-.16.72-.15.85-.64.05-.2.38-.14.44.09s.32.42.57.54a1.63,1.63,0,0,1,.89,1c.05.16.18.36-.08.46a.38.38,0,0,1-.47-.16,1.34,1.34,0,0,0-.4-.51c-.26-.17-.47-.15-.48.21s0,.88,0,1.32.29.38.54.47a1.64,1.64,0,0,1,1.26,1.29,1.66,1.66,0,0,1-1.18,1.9c-.32.11-.62.17-.66.58a.2.2,0,0,1-.2.18.22.22,0,0,1-.21-.19c0-.4-.34-.49-.64-.6a1.85,1.85,0,0,1-1.24-1.28c-.05-.18-.17-.42.11-.5s.48-.07.58.25a1.3,1.3,0,0,0,.47.74.53.53,0,0,0,.5.15c.19-.09.18-.29.19-.47S313.29,376.71,313.29,376.51Zm1.5.12a2.48,2.48,0,0,0-.07-.3.74.74,0,0,0-.72-.53c-.37,0-.17.41-.2.64a2.33,2.33,0,0,0,0,.59c0,.2-.11.5.18.56a.64.64,0,0,0,.64-.35A1.15,1.15,0,0,0,314.79,376.63Zm-1.56-2.91c-.07-.25.13-.58-.15-.8-.1-.08-.27,0-.37.13a.86.86,0,0,0-.33.89.68.68,0,0,0,.1.27c.14.23.37.43.62.36s.1-.34.12-.53A1.6,1.6,0,0,0,313.23,373.72Z" transform="translate(-232 -361)"/><path class="cls-3" d="M283.25,382.49a6.27,6.27,0,0,1,1.72.2.77.77,0,0,1,.63.83,7.16,7.16,0,0,1-2,4.85c-.14.14-.31.33-.51.16s-.06-.33,0-.5a14.92,14.92,0,0,0,.91-2.84c.08-.46.15-.93-.34-1.23a4.51,4.51,0,0,0-1.45-.17c-.77,0-1.55.11-2.32.16-.18,0-.41.08-.49-.12s.15-.35.31-.45A6.83,6.83,0,0,1,283.25,382.49Z" transform="translate(-232 -361)"/><path class="cls-2" d="M274.4,377.58a3.89,3.89,0,0,1-.33,1.63,1.5,1.5,0,0,1-1.91.87,1.64,1.64,0,0,1-.55-2.1,2.63,2.63,0,0,1,2.56-1.16C274.6,377,274.27,377.39,274.4,377.58Z" transform="translate(-232 -361)"/><path class="cls-2" d="M248.62,377.55a4.07,4.07,0,0,1-.31,1.62,1.46,1.46,0,0,1-1.8.88,1.54,1.54,0,0,1-.61-1.92,2.42,2.42,0,0,1,2.49-1.24C248.79,377,248.5,377.38,248.62,377.55Z" transform="translate(-232 -361)"/><path class="cls-2" d="M293.94,376.56a9.4,9.4,0,0,1-.21,2.29,2.08,2.08,0,0,1-.4.85,1.2,1.2,0,0,1-2-.13,1.06,1.06,0,0,1-.11-.21,9.37,9.37,0,0,1-.09-5.35,1.18,1.18,0,0,1,1.34-.88,1.28,1.28,0,0,1,1.16,1A10.65,10.65,0,0,1,293.94,376.56Z" transform="translate(-232 -361)"/><path class="cls-2" d="M331.39,377.15a8.36,8.36,0,0,1-.81,3.93,2,2,0,0,1-1.89,1.32,2,2,0,0,1-1.84-1.4,9.7,9.7,0,0,1,0-7.62,2.92,2.92,0,0,1,.37-.61,1.83,1.83,0,0,1,3.08,0A7.38,7.38,0,0,1,331.39,377.15Z" transform="translate(-232 -361)"/><path class="cls-2" d="M314.79,376.63a1.15,1.15,0,0,1-.17.61.64.64,0,0,1-.64.35c-.29-.06-.16-.36-.18-.56a2.33,2.33,0,0,1,0-.59c0-.23-.17-.6.2-.64a.74.74,0,0,1,.72.53A2.48,2.48,0,0,1,314.79,376.63Z" transform="translate(-232 -361)"/><path class="cls-2" d="M313.23,373.72a1.6,1.6,0,0,1,0,.32c0,.19.1.47-.12.53s-.48-.13-.62-.36a.68.68,0,0,1-.1-.27.86.86,0,0,1,.33-.89c.1-.09.27-.21.37-.13C313.36,373.14,313.16,373.47,313.23,373.72Z" transform="translate(-232 -361)"/></svg>