<?xml version="1.0" encoding="utf-8"?>
<!-- Generator: Adobe Illustrator 26.0.3, SVG Export Plug-In . SVG Version: 6.00 Build 0)  -->
<svg version="1.1" id="Layer_1" xmlns="http://www.w3.org/2000/svg" xmlns:xlink="http://www.w3.org/1999/xlink" x="0px" y="0px"
	 viewBox="0 0 360 360" style="enable-background:new 0 0 360 360;" xml:space="preserve">
<style type="text/css">
	.st0{fill:#5DBED4;}
	.st1{fill:#343434;}
	.st2{fill:#58B1C5;}
	.st3{fill:#565656;}
	.st4{fill:#6CC9E4;}
</style>
<g>
	<path class="st0" d="M270.2,285.9c-60,0-120.1,0-180.1,0c-11.2-69.7-22.2-139.5-33.8-209c-2.3-13.9-2.7-28.1-8-41.3
		c-1.5-7,1.3-8.5,8.4-8.5c82.3,0.3,164.6,0.3,246.8,0c7,0,9.9,1.5,8.4,8.5c-2.8,2.8-2.5,6.5-3,10c-9.4,56.7-18.6,113.2-27.8,169.9
		C277.4,238.7,272.5,262.1,270.2,285.9z"/>
</g>
<g>
	<path class="st1" d="M94.6,357.8c-2.5,0-4.5-2-4.5-4.5c0-11.7,0.2-43.5-0.2-61.2c0-4.5,1.5-4.5,4.8-4.5c57,0.2,113.9,0.2,170.9,0
		c3.8,0,4.7,0.7,4.7,4.7c-0.3,19.7-0.3,39.5,0,59.2c0.2,5.9-1.8,6.4-6.9,6.4C212.7,357.8,116.3,357.8,94.6,357.8z"/>
</g>
<g>
	<path class="st2" d="M180.9,2.4c42.5,0,85,0,127.4-0.2c4.5,0,5.7,0.7,5.7,5.4C313.8,25,314,25,296.4,25c-80.3,0-160.4,0-240.7,0.2
		c-5.2,0-7.9-0.3-7-6.4c0.7-5.4-2-13.4,0.7-15.6c3.5-2.7,11-0.8,16.7-0.8C104.3,2.4,142.6,2.4,180.9,2.4z"/>
</g>
<g>
	<g>
		<path class="st3" d="M232.1,357.8c0-21.4,0-42.6,0-64.1c0-3.5,0-5.7,4.7-5.4c7,0.5,16.4-2.5,20.2,1c3.5,3.2,1,13.2,1,20.2
			c0,14-0.3,27.9,0.2,42c0.2,5.7-1.8,6.7-6.7,6.4C245.1,357.5,238.6,357.8,232.1,357.8z"/>
	</g>
</g>
<g>
	<path class="st4" d="M279.9,161.5c-7.4,41.8-14.7,77.6-21.7,119.6c-0.8,4.5-6,5-6,5c-17.2-3.2-17.4,2.7-14.4-14.7
		c13.7-79.1,27.6-158,41.3-237.1c0.8-5.2,1.7-7.7,7.5-5.9c5.2,1.7,14.2-2.8,15.9,0.2c2.2,4-1.7,14.2-2.7,19.7
		C293.1,86,286.4,123.8,279.9,161.5z"/>
</g>
</svg>
