<svg id="Layer_1" data-name="Layer 1" xmlns="http://www.w3.org/2000/svg" viewBox="0 0 493.46 84.01"><defs><style>.cls-1{fill:#2f6657;}.cls-2{fill:#f1f1f6;}.cls-3{fill:#fffefe;}.cls-4{font-size:5px;font-family:PTMono-Regular, PT Mono;}</style></defs><path class="cls-1" d="M454.48,22.59c.57.74.34,1.61.34,2.43q0,31,0,62.08c0,2.93,0,5.86,0,8.79,0,1.45,0,1.46-1.52,1.48l-9.51.07c-.49-.58-.27-1.26-.27-1.9q0-35.52,0-71a4.76,4.76,0,0,1,.19-2c3.62-.06,7.23-.13,10.84,0Z" transform="translate(-11.19 -22.49)"/><path class="cls-1" d="M402.53,97.44,393,97.37c-1.47,0-1.47,0-1.52-1.49,0-.47,0-.95,0-1.43q0-25.31,0-50.62,0-7,.05-14c0-1.78,0-1.81,1.81-1.81,2.57,0,5.14,0,7.72,0,1.74,0,1.76,0,1.78,1.83v65c0,.72.05,1.43.07,2.15Z" transform="translate(-11.19 -22.49)"/><path class="cls-2" d="M11.19,63.19V31.41c0-.47,0-.95,0-1.43,0-.68.35-1,1-1h9.34c.82,0,1.18.47,1.18,1.26,0,.41,0,.83,0,1.25V95.09c0,2.38.13,2.25-2.24,2.25H13.3c-2.1,0-2.1,0-2.11-2.2Z" transform="translate(-11.19 -22.49)"/><path class="cls-1" d="M351.66,97.44l-9.51-.07c-1.47,0-1.48,0-1.52-1.49,0-.47,0-.95,0-1.43V43.83q0-6.64.05-13.28c0-1.78,0-1.81,1.81-1.82q3.87,0,7.72,0c1.75,0,1.77,0,1.79,1.83V94.83c0,.72,0,1.43.07,2.15Z" transform="translate(-11.19 -22.49)"/><path class="cls-1" d="M215.82,63V95c0,.48,0,1,0,1.44,0,.67-.24,1-.93,1-3.18,0-6.35,0-9.53,0-.62,0-.85-.3-.83-.89,0-.41,0-.83,0-1.25V30.91c0-.3,0-.6,0-.9.05-1.33.07-1.37,1.47-1.38,2.7,0,5.39,0,8.09,0,1.7,0,1.72,0,1.72,1.68,0,3.47,0,6.94,0,10.42Z" transform="translate(-11.19 -22.49)"/><path class="cls-2" d="M46.42,65.45V36.35c0-.42,0-.84,0-1.26,0-1.33.07-1.38,1.47-1.39,2.82,0,5.63,0,8.45,0,1.37,0,1.55.22,1.61,1.55,0,.36,0,.72,0,1.08V95.08c0,2.39-.16,2.57-2.51,2.59-2,0-4.07,0-6.11,0a6.77,6.77,0,0,1-.9,0c-2-.28-2-.33-2-2.37Z" transform="translate(-11.19 -22.49)"/><path class="cls-1" d="M271.47,97.31q0-30.34,0-60.7c0-1.71,0-1.75,1.68-1.76,2.75,0,5.5,0,8.26,0,1.19,0,1.34.16,1.36,1.35.05,2.34.06,4.67.06,7V94.93c0,2.95.07,2.41-2.37,2.43-3,0-6,0-9,0Z" transform="translate(-11.19 -22.49)"/><path class="cls-1" d="M334.41,97.44l-9.5-.07c-1.49,0-1.49,0-1.54-1.48,0-.29,0-.59,0-.89V38.15c0-2,0-2,2-2,3,0,6.1,0,9.15,0l.3,1.42c0,.48-.07,1-.07,1.43V94.83c0,.48,0,1,.07,1.43C334.6,96.63,334.8,97.13,334.41,97.44Z" transform="translate(-11.19 -22.49)"/><path class="cls-1" d="M152.54,68.71V42.3c0-.48,0-1,0-1.44a.91.91,0,0,1,1-1h9.34a.93.93,0,0,1,1,1c0,.42,0,.84,0,1.26V95.34c0,.36,0,.72,0,1.07,0,.69-.27,1-1,1-3.18,0-6.35,0-9.53,0-.71,0-.95-.33-.91-1,0-.42,0-.84,0-1.26Z" transform="translate(-11.19 -22.49)"/><path class="cls-1" d="M75.41,70.2V95.33c0,.42,0,.84,0,1.26,0,.69-.33.94-1,.94-3.23,0-6.46,0-9.69,0-.7,0-1-.33-.94-1,0-.35,0-.71,0-1.07V44.65c0-.3,0-.6,0-.9.06-1.21.19-1.38,1.35-1.39,3,0,6,0,9,0,.93,0,1.32.4,1.29,1.29,0,.42,0,.84,0,1.26Z" transform="translate(-11.19 -22.49)"/><path class="cls-1" d="M426.23,97.31q0-27.48,0-54.95c0-1.71,0-1.75,1.67-1.76,2.76,0,5.51,0,8.27,0,1.19,0,1.33.16,1.36,1.35,0,2.22.06,4.43.06,6.65V94.93c0,2.95.07,2.41-2.38,2.43-3,0-6,0-9,0Z" transform="translate(-11.19 -22.49)"/><path class="cls-1" d="M135.29,70.33V45.54c0-.48,0-1,0-1.44a.92.92,0,0,1,1-1h9.35a.9.9,0,0,1,1,1c0,.42,0,.84,0,1.26V95.33c0,.36,0,.72,0,1.08,0,.69-.26,1-.94,1-3.18,0-6.35,0-9.53,0-.71,0-.95-.33-.92-1,0-.42,0-.84,0-1.26Z" transform="translate(-11.19 -22.49)"/><path class="cls-1" d="M368.34,97.31c-3.41,0-6.83,0-10.24.07-.74,0-1.13-.23-1.1-1,0-.48,0-1,0-1.44q0-23,0-46c0-1.32,0-2.64.05-4,0-.82.35-1.2,1.19-1.19,3,0,6,0,9,0,.85,0,1.19.42,1.14,1.23,0,.18,0,.36,0,.54q0,25.86,0,51.72Z" transform="translate(-11.19 -22.49)"/><path class="cls-1" d="M237,97.29l0-.09c0-.83,0-1.67,0-2.51q0-22.54,0-45.1c0-.9,0-1.8,0-2.69.05-1.35.06-1.38,1.47-1.38,2.82,0,5.63,0,8.45,0,1.32,0,1.38.1,1.44,1.44,0,.3,0,.6,0,.9q0,23.53,0,47.07c0,2.95.07,2.42-2.37,2.43C242.94,97.38,240,97.32,237,97.29Z" transform="translate(-11.19 -22.49)"/><path class="cls-1" d="M118,71.62V48.09c0-.36,0-.72,0-1.08,0-1.21.17-1.36,1.35-1.38,2.34,0,4.68,0,7,0,.6,0,1.2,0,1.8,0,.81,0,1.24.34,1.21,1.17,0,.36,0,.72,0,1.08V96c0,1.3,0,1.33-1.27,1.34q-4.41,0-8.81,0c-1.27,0-1.3,0-1.3-1.3,0-5.45,0-10.9,0-16.35Z" transform="translate(-11.19 -22.49)"/><path class="cls-1" d="M317.47,97.31c-3.42,0-6.83,0-10.24.07-.74,0-1.13-.23-1.1-1,0-.48,0-1,0-1.44q0-20.12,0-40.23c0-1,0-2,.06-3.05a.89.89,0,0,1,1-1h9.34c.67,0,1,.38,1,1,0,.24,0,.48,0,.71q0,22.46,0,44.9Z" transform="translate(-11.19 -22.49)"/><path class="cls-1" d="M187.28,74v-21c0-.48,0-1,0-1.44,0-.68.35-1,1-1h4c1.68,0,3.35,0,5,0,.89,0,1.38.26,1.3,1.22,0,.3,0,.6,0,.9q0,21.38,0,42.76c0,2.11.2,2-1.9,2h-7.91c-1.45,0-1.47,0-1.47-1.5Q187.27,84.92,187.28,74Z" transform="translate(-11.19 -22.49)"/><path class="cls-1" d="M409.19,52.39c3.23,0,6.46,0,9.68,0,1.33,0,1.39.1,1.45,1.44,0,.3,0,.59,0,.89q0,20.17,0,40.33c0,2.9,0,2.33-2.43,2.36-2.87,0-5.74,0-8.61.08-.38-.31-.19-.81-.39-1.18,0-.41.07-.83.07-1.24V55.41c0-.41,0-.83-.07-1.25C409.13,53.59,408.88,52.94,409.19,52.39Z" transform="translate(-11.19 -22.49)"/><path class="cls-1" d="M460.74,97.31q0-20.3,0-40.58c0-1.71,0-1.75,1.67-1.76,2.7,0,5.39,0,8.09,0,1.44,0,1.49.07,1.54,1.53,0,.9.05,1.8.05,2.7q0,17.77,0,35.55c0,.48,0,1,0,1.44.08,1-.39,1.21-1.29,1.19-3.35-.06-6.7,0-10.06-.07Z" transform="translate(-11.19 -22.49)"/><path class="cls-1" d="M476.17,97.39l-.28-.45v-.37c0-.65.1-1.31.1-2q0-16.33,0-32.66a9.6,9.6,0,0,1,.33-3.73l9.34,0c1.63,0,1.67,0,1.67,1.77V94.8c0,.72.05,1.44.07,2.15l-.08.35Z" transform="translate(-11.19 -22.49)"/><path class="cls-1" d="M92.87,79c0,5.63,0,11.26,0,16.89,0,1.63,0,1.64-1.7,1.64-2.81,0-5.63,0-8.44,0-1.37,0-1.4,0-1.4-1.4,0-6,0-12,0-18,0-5.27,0-10.54,0-15.81,0-1.89,0-1.94,1.88-1.94,2.58,0,5.15,0,7.73,0,1.91,0,1.93,0,1.93,1.88C92.88,67.85,92.87,73.42,92.87,79Z" transform="translate(-11.19 -22.49)"/><path class="cls-1" d="M385.59,97.31c-3.35,0-6.7,0-10,.07-.9,0-1.38-.22-1.29-1.19,0-.12,0-.24,0-.36q0-14.81.05-29.62c0-.3,0-.6,0-.9,0-.65.33-1,1-1h9.34c.67,0,1,.38,1,1v.72q0,15.62,0,31.24Z" transform="translate(-11.19 -22.49)"/><path class="cls-2" d="M40.33,84c0,4,0,7.89,0,11.84,0,1.71-.15,1.85-1.84,1.86q-4.12,0-8.26,0c-1.57,0-1.76-.18-1.76-1.75q0-11.94,0-23.87c0-1.81.27-2,2.1-2,2.52,0,5,0,7.55,0,2,0,2.2.18,2.21,2.3C40.34,76.19,40.33,80.08,40.33,84Z" transform="translate(-11.19 -22.49)"/><path class="cls-1" d="M170,84.38V73.44c0-1.92,0-1.93,1.86-1.94,2.63,0,5.26,0,7.89,0,1.44,0,1.53.1,1.53,1.54,0,7.71,0,15.42,0,23.13,0,1-.34,1.23-1.25,1.21-2.93,0-5.86,0-8.79,0-1.23,0-1.26,0-1.26-1.33C170,92.15,170,88.26,170,84.38Z" transform="translate(-11.19 -22.49)"/><path class="cls-1" d="M110.42,85.9c0,3.36,0,6.71,0,10.06,0,1.54,0,1.55-1.61,1.56-2.76,0-5.51,0-8.26,0-1.67,0-1.69,0-1.69-1.65v-19c0-.59,0-1.19,0-1.79s.29-1.11,1.06-1.11c3.11,0,6.22,0,9.34,0,1,0,1.15.17,1.16,1.54C110.43,79,110.42,82.43,110.42,85.9Z" transform="translate(-11.19 -22.49)"/><path class="cls-1" d="M300.21,97.31c-3.35,0-6.7,0-10,0-1.23,0-1.28,0-1.29-1.34,0-4.07,0-8.13,0-12.2,0-1.79,0-3.59,0-5.38,0-1.6.07-1.65,1.59-1.66q4.13,0,8.25,0c1.48,0,1.52,0,1.52,1.51,0,6.34,0,12.68,0,19Z" transform="translate(-11.19 -22.49)"/><path class="cls-1" d="M233.07,87.43c0,2.88,0,5.75,0,8.62,0,1.28,0,1.3-1.29,1.31-2.94,0-5.87,0-8.81,0-1,0-1.2-.37-1.2-1.27,0-5.74,0-11.49,0-17.24,0-1.29.08-1.37,1.29-1.38q4.32,0,8.62,0c1.31,0,1.36.07,1.37,1.49C233.09,81.8,233.07,84.62,233.07,87.43Z" transform="translate(-11.19 -22.49)"/><path class="cls-1" d="M254.22,97.31q0-7.62,0-15.25c0-1.67,0-1.68,1.7-1.69q4,0,8.07,0c1.48,0,1.57.08,1.58,1.48q0,7.09,0,14.17c0,1.3-.05,1.34-1.29,1.34-3.35,0-6.7,0-10,0Z" transform="translate(-11.19 -22.49)"/><path class="cls-1" d="M504.66,97l-.08.34c-3.41,0-6.82,0-10.23.08-.86,0-1.23-.28-1.13-1.14a1.08,1.08,0,0,0,0-.18c-.07-2.39-.07-2.4,2.29-2.4,2.57,0,5.15,0,7.72,0,1.27,0,1.3.07,1.35,1.32C504.61,95.64,504.63,96.3,504.66,97Z" transform="translate(-11.19 -22.49)"/><path class="cls-2" d="M320.62,96.59l-.06.12-.13-.17s.08-.06.11-.06S320.59,96.55,320.62,96.59Z" transform="translate(-11.19 -22.49)"/><path class="cls-2" d="M303.32,96.49s.05.09,0,.12-.11.15-.18,0a.13.13,0,0,1,0-.13S303.28,96.5,303.32,96.49Z" transform="translate(-11.19 -22.49)"/><path class="cls-2" d="M285.73,96.68s-.09,0-.11,0a.21.21,0,0,1-.05-.12c0-.13.11-.15.18,0S285.74,96.63,285.73,96.68Z" transform="translate(-11.19 -22.49)"/><path class="cls-2" d="M268.36,96.5s.09,0,.11,0,0,.1,0,.13-.13.13-.17,0S268.34,96.54,268.36,96.5Z" transform="translate(-11.19 -22.49)"/><path class="cls-2" d="M251.14,96.71s-.07-.07-.07-.1.07-.17.16-.09a.14.14,0,0,1,0,.13S251.17,96.69,251.14,96.71Z" transform="translate(-11.19 -22.49)"/><path class="cls-2" d="M218.84,96.49s.06.09,0,.12-.11.15-.18,0,0-.1,0-.13S218.81,96.5,218.84,96.49Z" transform="translate(-11.19 -22.49)"/><path class="cls-2" d="M201.64,96.59l-.06.12-.13-.17s.08-.06.11-.06S201.61,96.55,201.64,96.59Z" transform="translate(-11.19 -22.49)"/><path class="cls-2" d="M461.48,22.59h0Z" transform="translate(-11.19 -22.49)"/><path class="cls-3" d="M482.88,96.57v.37C482.57,96.82,482.62,96.7,482.88,96.57Z" transform="translate(-11.19 -22.49)"/><path class="cls-3" d="M98.31,101.41s0,.12,0,.12a.44.44,0,0,1-.15,0s0-.12,0-.12A.49.49,0,0,1,98.31,101.41Z" transform="translate(-11.19 -22.49)"/><text class="cls-4" transform="translate(53.6 82.83)"><tspan xml:space="preserve">Thu   Fri   Sat   Sun   Mon   Tue   Wed  Thu   Fri   Sat  Sun   Mon  Tue   Wed   Thu  Fri   Sat  Sun  Mon   Tue    Wed   Thu   Fri   Sat  Sun  Mon</tspan></text></svg>